<svg xmlns="http://www.w3.org/2000/svg" width="58" height="36" viewBox="0 0 58 36"><path fill="#fff" d="M41.05 17.89c0-.69-.32-1.2-.96-1.51L23.67 7.43a2.16 2.16 0 0 0-2.08-.05c-.71.33-1.06.86-1.06 1.56v17.89c0 .71.35 1.23 1.06 1.56.34.15.67.23.99.23.43 0 .79-.09 1.09-.28l16.42-8.94c.64-.32.96-.82.96-1.51zm16.43 0c0 1.79-.02 3.18-.04 4.19-.02 1-.11 2.28-.27 3.81-.16 1.54-.4 2.91-.72 4.13a6.35 6.35 0 0 1-2.21 3.43 7.2 7.2 0 0 1-3.98 1.62c-4.75.47-11.92.7-21.52.7s-16.78-.23-21.52-.7a7.29 7.29 0 0 1-4-1.62 6.39 6.39 0 0 1-2.23-3.43C.69 28.8.47 27.43.3 25.89a47.08 47.08 0 0 1-.27-3.81 224.3 224.3 0 0 1 0-8.39c.02-1 .11-2.27.27-3.81.17-1.54.41-2.91.73-4.12a6.38 6.38 0 0 1 2.21-3.44A7.24 7.24 0 0 1 7.22.7C11.96.23 19.14 0 28.74 0s16.77.23 21.52.7a7.3 7.3 0 0 1 3.99 1.62 6.3 6.3 0 0 1 2.23 3.44c.3 1.21.53 2.58.69 4.12.16 1.54.25 2.81.27 3.81.02 1.01.04 2.41.04 4.2z"/></svg>